<?xml version="1.0" encoding="utf-8"?>
<!-- Generator: Adobe Illustrator 17.0.0, SVG Export Plug-In . SVG Version: 6.00 Build 0)  -->
<!DOCTYPE svg PUBLIC "-//W3C//DTD SVG 1.1//EN" "http://www.w3.org/Graphics/SVG/1.1/DTD/svg11.dtd">
<svg version="1.1" id="Shape_1_1_" xmlns="http://www.w3.org/2000/svg" xmlns:xlink="http://www.w3.org/1999/xlink" x="0px" y="0px"
	 width="18px" height="18px" viewBox="0 0 18 18" enable-background="new 0 0 18 18" xml:space="preserve">
<path fill="#F8D1CB" d="M10.085,13.64c0,0.6-0.49,1.09-1.09,1.09s-1.09-0.49-1.09-1.09c0-0.61,0.49-1.09,1.09-1.09
	S10.085,13.03,10.085,13.64z"/>
<path fill="#F8D1CB" d="M8.995,0c-4.96,0-9,4.04-9,9s4.04,9,9,9s9-4.04,9-9S13.955,0,8.995,0z M8.995,16.36
	c-4.06,0-7.36-3.3-7.36-7.36s3.3-7.36,7.36-7.36s7.36,3.3,7.36,7.36S13.055,16.36,8.995,16.36z"/>
<path fill="#F8D1CB" d="M10.085,8.168c0,0.6-0.49,1.09-1.09,1.09s-1.09-0.49-1.09-1.09c0-0.61,0.49-1.09,1.09-1.09
	S10.085,7.558,10.085,8.168z"/>
<path fill="#F8D1CB" d="M10.085,4.36c0,0.6-0.49,1.09-1.09,1.09s-1.09-0.49-1.09-1.09c0-0.61,0.49-1.09,1.09-1.09
	S10.085,3.75,10.085,4.36z"/>
<rect x="7.905" y="8.168" fill="#F8D1CB" width="2.18" height="5.472"/>
</svg>
