<?xml version="1.0" encoding="utf-8"?>
<!-- Generator: Adobe Illustrator 17.0.0, SVG Export Plug-In . SVG Version: 6.00 Build 0)  -->
<!DOCTYPE svg PUBLIC "-//W3C//DTD SVG 1.1//EN" "http://www.w3.org/Graphics/SVG/1.1/DTD/svg11.dtd">
<svg version="1.1" id="Layer_1" xmlns="http://www.w3.org/2000/svg" xmlns:xlink="http://www.w3.org/1999/xlink" x="0px" y="0px"
	 width="115px" height="25px" viewBox="0 0 115 25" enable-background="new 0 0 115 25" xml:space="preserve">
<g>
	<path fill="#FFFFFF" d="M97.832,10.468c0.343,0.078,0.566,0.256,0.698,0.536c0.119,0.289,0.177,0.954,0.18,2.027l0.003,3.22
		l-2.807,0.005l-0.002-3.222c0-1.07,0.061-1.736,0.192-2.027c0.125-0.281,0.347-0.461,0.683-0.536v-0.76l-4.504,0.003v0.76
		c0.377,0.061,0.637,0.255,0.809,0.585c0.102,0.222,0.153,0.88,0.153,1.978l0.008,7.627c0,1.092-0.048,1.744-0.153,1.967
		c-0.17,0.339-0.425,0.522-0.802,0.586v0.758l4.503-0.003v-0.759c-0.339-0.074-0.56-0.25-0.687-0.536
		c-0.131-0.282-0.197-0.957-0.197-2.019l-0.003-3.439l2.807-0.003l0.003,3.439c0,1.062-0.056,1.737-0.178,2.022
		c-0.128,0.286-0.35,0.463-0.696,0.532v0.763l4.52-0.003v-0.763c-0.379-0.063-0.643-0.246-0.807-0.582
		c-0.108-0.224-0.167-0.879-0.167-1.972l-0.006-7.626c0-1.095,0.058-1.753,0.164-1.975c0.161-0.328,0.424-0.529,0.807-0.588
		l-0.003-0.757l-4.517,0.003V10.468z"/>
	<path fill="#FFFFFF" d="M39.456,23.247c-0.601,0-1.034-0.155-1.303-0.479c-0.281-0.319-0.46-0.74-0.55-1.24
		c-0.028-0.231-0.042-0.857-0.042-1.874L37.551,6.413l4.75,17.609h0.618L47.47,6.696l0.012,13.573c0,1.034-0.03,1.68-0.099,1.914
		c-0.088,0.353-0.224,0.594-0.375,0.74c-0.242,0.213-0.538,0.316-0.924,0.316h-0.417v0.782l6.756-0.006v-0.782h-0.424
		c-0.364,0-0.652-0.091-0.871-0.289c-0.211-0.197-0.358-0.438-0.426-0.694c-0.07-0.266-0.111-0.924-0.111-1.983L50.58,7.079
		c-0.003-1.028,0.039-1.661,0.105-1.911c0.095-0.324,0.224-0.562,0.382-0.713c0.228-0.214,0.54-0.322,0.916-0.322h0.424V3.36
		l-5.263,0.003L43.641,16.98L39.994,3.369l-5.277,0.006v0.773h0.41c0.363,0,0.644,0.097,0.871,0.297
		c0.208,0.202,0.358,0.424,0.425,0.684c0.072,0.26,0.106,0.916,0.106,1.963l0.008,12.641c0.005,0.927-0.003,1.44-0.011,1.551
		c-0.074,0.472-0.169,0.852-0.304,1.118c-0.117,0.266-0.307,0.474-0.562,0.621c-0.239,0.161-0.513,0.236-0.796,0.227h-0.135v0.779
		l4.725-0.005V23.247z"/>
	<path fill="#FFFFFF" d="M113.795,22.617c-0.155-0.246-0.657-1.151-1.509-3.136l-2.103-4.903c0,0,1.92-3.081,2.651-3.642
		c0.285-0.266,0.618-0.415,0.998-0.443V9.72l-3.994,0.003l0.003,0.773c1.376-0.003,1.215,1.149,0.873,1.725
		c-0.12,0.203-2.871,4.467-2.871,4.467L107.83,3.311l-3.63,0.003l0.003,0.773c0.399,0.083,0.654,0.264,0.776,0.522
		c0.128,0.263,0.189,0.932,0.189,2.007l0.016,14.049c0,1.085-0.058,1.733-0.164,1.958c-0.155,0.335-0.424,0.519-0.802,0.588v0.757
		l4.61-0.002v-0.758c-0.396-0.075-0.66-0.253-0.783-0.513c-0.133-0.272-0.199-0.455-0.199-2.035l-0.005-2.347l0.588-0.902
		l1.76,3.918c0.27,0.63,0.4,1.059,0.4,1.293c0,0.144-0.05,0.271-0.133,0.391c-0.091,0.127-0.244,0.192-0.447,0.192v0.762
		l4.606-0.005v-0.759C114.286,23.158,114.009,22.965,113.795,22.617"/>
	<path fill="#FFFFFF" d="M58.552,22.174c-0.091,0.355-0.225,0.594-0.388,0.74c-0.231,0.213-0.533,0.317-0.909,0.317h-0.424v0.777
		l6.769-0.005l-0.003-0.776H63.17c-0.371,0-0.662-0.095-0.877-0.299c-0.205-0.195-0.35-0.429-0.428-0.69
		c-0.064-0.266-0.108-0.923-0.113-1.983l-0.005-7.577l-0.008-8.143h0.937c0.865,0,1.504,0.292,1.896,0.893
		c0.562,0.815,0.474,1.986,0.627,3.51h0.788l-0.006-5.593l-11.58,0.011l0.006,5.591h0.78c0.147-1.525,0.067-2.699,0.626-3.513
		c0.391-0.601,1.026-0.895,1.897-0.895h0.934l0.017,15.718C58.661,21.294,58.622,21.936,58.552,22.174"/>
	<path fill="#FFFFFF" d="M78.72,22.144c1.561-2.019,1.722-8.463,0.099-10.571c-1.415-1.853-3.858-2.09-6.054-2.066l-0.008-4.98
		h0.027l2.513-0.005c0.867,0,1.498,0.294,1.896,0.896c0.557,0.812,0.477,1.985,0.627,3.507h0.785L78.6,3.335L67.95,3.344V4.12
		c0.594,0,0.999,0.088,1.218,0.263c0.211,0.174,0.363,0.397,0.444,0.69c0.094,0.288,0.13,0.785,0.133,1.896l0.012,13.19
		c0,1.121-0.041,1.816-0.131,2.094c-0.08,0.294-0.231,0.53-0.439,0.701c-0.221,0.183-0.615,0.269-1.223,0.269v0.782l6.57-0.006
		C76.371,23.998,77.765,23.374,78.72,22.144 M73.021,22.453c-0.173-0.285-0.252-0.699-0.252-1.242l0.005-0.768l-0.009-9.74
		c0.965-0.008,1.7,0.13,2.194,0.433c0.483,0.308,0.878,0.844,1.154,1.608c0.699,1.905,0.71,6.129,0.083,8.014
		c-0.232,0.679-0.558,1.209-0.989,1.566c-0.43,0.368-0.896,0.544-1.404,0.544C73.461,22.867,73.198,22.728,73.021,22.453"/>
	<path fill="#FFFFFF" d="M89.57,21.816c-0.07-0.069-0.111-0.205-0.149-0.361c-0.031-0.167-0.041-0.582-0.041-1.237l-0.008-5.225
		c0-1.534-0.053-2.521-0.142-2.945c-0.246-1.293-1.043-2.709-2.968-2.717c-0.696,0-1.364,0.172-2.014,0.53
		c-0.649,0.36-1.156,0.868-1.514,1.534c-0.357,0.665-0.515,1.218-0.588,2.185c-0.041,1.211,0.702,1.695,1.456,1.692
		c0.755,0,1.364-0.608,1.364-1.364c0-0.266-0.069-0.469-0.21-0.726c-0.208-0.377-1.195-1.111-0.286-2.26
		c0.271-0.288,0.613-0.444,1.026-0.444c0.738,0,0.954,0.529,1.096,1.046c0.078,0.285,0.111,0.962,0.111,2.032l0.003,1.439
		c-1.958,1.437-3.233,2.596-3.815,3.463c-0.588,0.87-0.981,1.633-0.981,2.721c0.003,1.619,0.902,3.003,2.276,2.995
		c1.375-0.006,2.13-0.915,2.526-2.282c0.059,0.776,0.241,1.345,0.529,1.72c0.294,0.38,0.686,0.574,1.193,0.574
		c0.442-0.005,0.996-0.145,1.334-0.482c0.336-0.328,0.633-0.838,0.954-1.592L90.181,21.6C90.009,21.969,89.632,21.908,89.57,21.816
		 M86.709,20.69c-0.948,1.569-3.159,0.597-2.044-1.781c0.369-0.816,1.278-2.168,2.041-2.893L86.709,20.69z"/>
</g>
<path fill="#FFFFFF" d="M29.583,11.563c-0.956-4.884-5.346-8.559-10.604-8.556c-2.25,0.003-4.331,0.676-6.056,1.828
	c0,0,15.184,6.994,15.212,7.006C29.558,12.474,29.583,11.563,29.583,11.563"/>
<path fill="#FFFFFF" d="M27.238,20.356c0,0-0.328,0.228-0.799,0.034c-0.011-0.009-14.56-5.466-17.541-6.57
	c-0.469-0.18-0.69,0.163-0.677,0.368c0.336,5.543,5.03,9.928,10.776,9.922C22.31,24.105,25.257,22.65,27.238,20.356"/>
<path fill="#FFFFFF" d="M7.564,12.575c-0.03-0.261,0.135-0.536,0.654-0.325c0.519,0.216,18.333,7.391,18.381,7.411
	c0.554,0.194,1.053,0.175,1.282-0.141c0.363-0.51,0.651-0.998,0.918-1.57c-0.178,0.288-0.751,1.079-1.569,0.766
	c-0.078-0.023-20.039-8.32-20.219-8.402c-0.713-0.28-1.173,0.382-0.715,0.996c0.059,0.075,1.625,2.094,1.625,2.094
	S7.584,12.824,7.564,12.575"/>
<path fill="#FFFFFF" d="M2.691,3.57C2.73,3.586,28.08,14.674,28.264,14.757c0.54,0.253,1.439,0.13,1.494-0.56
	c0.005-0.217,0.011-0.425,0.011-0.646c-0.001-0.396-0.019-0.793-0.066-1.185c-0.025,0.261-0.206,1.426-1.5,0.816
	C27.978,13.071,1.918,1.05,1.56,0.88C1.066,0.642-0.02,1.035,0.543,2.114c0.012,0.03,2.09,3.333,2.068,3.283
	C2.58,5.345,2.268,4.605,2.129,3.928C2.062,3.656,2.306,3.403,2.691,3.57"/>
<path fill="#FFFFFF" d="M5.237,7.994c0.202,0.072,22.131,9.449,22.244,9.507c0.795,0.341,1.453,0.097,1.708-0.482
	c0.163-0.488,0.3-1.001,0.4-1.517c-0.1,0.258-0.569,1.242-1.642,0.824C27.891,16.308,4.591,5.855,4.341,5.744
	c-0.641-0.291-1.562,0.346-1.06,1.12c0.086,0.12,1.916,2.754,1.916,2.754S4.658,8.737,4.714,8.323
	C4.743,8.029,5.029,7.902,5.237,7.994"/>
</svg>
